%TF.GenerationSoftware,KiCad,Pcbnew,(5.1.12)-1*%
%TF.CreationDate,2021-12-04T12:05:45+01:00*%
%TF.ProjectId,touch-zigbee,746f7563-682d-47a6-9967-6265652e6b69,rev?*%
%TF.SameCoordinates,Original*%
%TF.FileFunction,Legend,Top*%
%TF.FilePolarity,Positive*%
%FSLAX46Y46*%
G04 Gerber Fmt 4.6, Leading zero omitted, Abs format (unit mm)*
G04 Created by KiCad (PCBNEW (5.1.12)-1) date 2021-12-04 12:05:45*
%MOMM*%
%LPD*%
G01*
G04 APERTURE LIST*
%ADD10C,0.250000*%
%ADD11C,0.150000*%
%ADD12C,0.120000*%
%ADD13C,0.203200*%
%ADD14C,0.127000*%
%ADD15C,0.152400*%
G04 APERTURE END LIST*
D10*
X110998095Y-100472857D02*
X112521904Y-100472857D01*
X103378095Y-100472857D02*
X104901904Y-100472857D01*
X104140000Y-101234761D02*
X104140000Y-99710952D01*
D11*
X101990000Y-136707619D02*
X102037619Y-136660000D01*
X102132857Y-136612380D01*
X102370952Y-136612380D01*
X102466190Y-136660000D01*
X102513809Y-136707619D01*
X102561428Y-136802857D01*
X102561428Y-136898095D01*
X102513809Y-137040952D01*
X101942380Y-137612380D01*
X102561428Y-137612380D01*
X103180476Y-136612380D02*
X103275714Y-136612380D01*
X103370952Y-136660000D01*
X103418571Y-136707619D01*
X103466190Y-136802857D01*
X103513809Y-136993333D01*
X103513809Y-137231428D01*
X103466190Y-137421904D01*
X103418571Y-137517142D01*
X103370952Y-137564761D01*
X103275714Y-137612380D01*
X103180476Y-137612380D01*
X103085238Y-137564761D01*
X103037619Y-137517142D01*
X102990000Y-137421904D01*
X102942380Y-137231428D01*
X102942380Y-136993333D01*
X102990000Y-136802857D01*
X103037619Y-136707619D01*
X103085238Y-136660000D01*
X103180476Y-136612380D01*
X103894761Y-136707619D02*
X103942380Y-136660000D01*
X104037619Y-136612380D01*
X104275714Y-136612380D01*
X104370952Y-136660000D01*
X104418571Y-136707619D01*
X104466190Y-136802857D01*
X104466190Y-136898095D01*
X104418571Y-137040952D01*
X103847142Y-137612380D01*
X104466190Y-137612380D01*
X105418571Y-137612380D02*
X104847142Y-137612380D01*
X105132857Y-137612380D02*
X105132857Y-136612380D01*
X105037619Y-136755238D01*
X104942380Y-136850476D01*
X104847142Y-136898095D01*
X106609047Y-137231428D02*
X107370952Y-137231428D01*
X108513809Y-136945714D02*
X108751904Y-137612380D01*
X108990000Y-136945714D01*
X109894761Y-137612380D02*
X109323333Y-137612380D01*
X109609047Y-137612380D02*
X109609047Y-136612380D01*
X109513809Y-136755238D01*
X109418571Y-136850476D01*
X109323333Y-136898095D01*
X111085238Y-137231428D02*
X111847142Y-137231428D01*
X113418571Y-137088571D02*
X113561428Y-137136190D01*
X113609047Y-137183809D01*
X113656666Y-137279047D01*
X113656666Y-137421904D01*
X113609047Y-137517142D01*
X113561428Y-137564761D01*
X113466190Y-137612380D01*
X113085238Y-137612380D01*
X113085238Y-136612380D01*
X113418571Y-136612380D01*
X113513809Y-136660000D01*
X113561428Y-136707619D01*
X113609047Y-136802857D01*
X113609047Y-136898095D01*
X113561428Y-136993333D01*
X113513809Y-137040952D01*
X113418571Y-137088571D01*
X113085238Y-137088571D01*
X113990000Y-136945714D02*
X114228095Y-137612380D01*
X114466190Y-136945714D02*
X114228095Y-137612380D01*
X114132857Y-137850476D01*
X114085238Y-137898095D01*
X113990000Y-137945714D01*
X116132857Y-136660000D02*
X116037619Y-136612380D01*
X115894761Y-136612380D01*
X115751904Y-136660000D01*
X115656666Y-136755238D01*
X115609047Y-136850476D01*
X115561428Y-137040952D01*
X115561428Y-137183809D01*
X115609047Y-137374285D01*
X115656666Y-137469523D01*
X115751904Y-137564761D01*
X115894761Y-137612380D01*
X115990000Y-137612380D01*
X116132857Y-137564761D01*
X116180476Y-137517142D01*
X116180476Y-137183809D01*
X115990000Y-137183809D01*
X117037619Y-136945714D02*
X117037619Y-137612380D01*
X116609047Y-136945714D02*
X116609047Y-137469523D01*
X116656666Y-137564761D01*
X116751904Y-137612380D01*
X116894761Y-137612380D01*
X116990000Y-137564761D01*
X117037619Y-137517142D01*
X117513809Y-137612380D02*
X117513809Y-136945714D01*
X117513809Y-136612380D02*
X117466190Y-136660000D01*
X117513809Y-136707619D01*
X117561428Y-136660000D01*
X117513809Y-136612380D01*
X117513809Y-136707619D01*
X118370952Y-137564761D02*
X118275714Y-137612380D01*
X118085238Y-137612380D01*
X117990000Y-137564761D01*
X117942380Y-137469523D01*
X117942380Y-137088571D01*
X117990000Y-136993333D01*
X118085238Y-136945714D01*
X118275714Y-136945714D01*
X118370952Y-136993333D01*
X118418571Y-137088571D01*
X118418571Y-137183809D01*
X117942380Y-137279047D01*
X118704285Y-136945714D02*
X119085238Y-136945714D01*
X118847142Y-136612380D02*
X118847142Y-137469523D01*
X118894761Y-137564761D01*
X118990000Y-137612380D01*
X119085238Y-137612380D01*
X96385714Y-134072380D02*
X96957142Y-134072380D01*
X96671428Y-135072380D02*
X96671428Y-134072380D01*
X97433333Y-135072380D02*
X97338095Y-135024761D01*
X97290476Y-134977142D01*
X97242857Y-134881904D01*
X97242857Y-134596190D01*
X97290476Y-134500952D01*
X97338095Y-134453333D01*
X97433333Y-134405714D01*
X97576190Y-134405714D01*
X97671428Y-134453333D01*
X97719047Y-134500952D01*
X97766666Y-134596190D01*
X97766666Y-134881904D01*
X97719047Y-134977142D01*
X97671428Y-135024761D01*
X97576190Y-135072380D01*
X97433333Y-135072380D01*
X98623809Y-134405714D02*
X98623809Y-135072380D01*
X98195238Y-134405714D02*
X98195238Y-134929523D01*
X98242857Y-135024761D01*
X98338095Y-135072380D01*
X98480952Y-135072380D01*
X98576190Y-135024761D01*
X98623809Y-134977142D01*
X99528571Y-135024761D02*
X99433333Y-135072380D01*
X99242857Y-135072380D01*
X99147619Y-135024761D01*
X99100000Y-134977142D01*
X99052380Y-134881904D01*
X99052380Y-134596190D01*
X99100000Y-134500952D01*
X99147619Y-134453333D01*
X99242857Y-134405714D01*
X99433333Y-134405714D01*
X99528571Y-134453333D01*
X99957142Y-135072380D02*
X99957142Y-134072380D01*
X100385714Y-135072380D02*
X100385714Y-134548571D01*
X100338095Y-134453333D01*
X100242857Y-134405714D01*
X100100000Y-134405714D01*
X100004761Y-134453333D01*
X99957142Y-134500952D01*
X100861904Y-134691428D02*
X101623809Y-134691428D01*
X102004761Y-134072380D02*
X102671428Y-134072380D01*
X102004761Y-135072380D01*
X102671428Y-135072380D01*
X103052380Y-135072380D02*
X103052380Y-134405714D01*
X103052380Y-134072380D02*
X103004761Y-134120000D01*
X103052380Y-134167619D01*
X103100000Y-134120000D01*
X103052380Y-134072380D01*
X103052380Y-134167619D01*
X103957142Y-134405714D02*
X103957142Y-135215238D01*
X103909523Y-135310476D01*
X103861904Y-135358095D01*
X103766666Y-135405714D01*
X103623809Y-135405714D01*
X103528571Y-135358095D01*
X103957142Y-135024761D02*
X103861904Y-135072380D01*
X103671428Y-135072380D01*
X103576190Y-135024761D01*
X103528571Y-134977142D01*
X103480952Y-134881904D01*
X103480952Y-134596190D01*
X103528571Y-134500952D01*
X103576190Y-134453333D01*
X103671428Y-134405714D01*
X103861904Y-134405714D01*
X103957142Y-134453333D01*
X104766666Y-134548571D02*
X104909523Y-134596190D01*
X104957142Y-134643809D01*
X105004761Y-134739047D01*
X105004761Y-134881904D01*
X104957142Y-134977142D01*
X104909523Y-135024761D01*
X104814285Y-135072380D01*
X104433333Y-135072380D01*
X104433333Y-134072380D01*
X104766666Y-134072380D01*
X104861904Y-134120000D01*
X104909523Y-134167619D01*
X104957142Y-134262857D01*
X104957142Y-134358095D01*
X104909523Y-134453333D01*
X104861904Y-134500952D01*
X104766666Y-134548571D01*
X104433333Y-134548571D01*
X105814285Y-135024761D02*
X105719047Y-135072380D01*
X105528571Y-135072380D01*
X105433333Y-135024761D01*
X105385714Y-134929523D01*
X105385714Y-134548571D01*
X105433333Y-134453333D01*
X105528571Y-134405714D01*
X105719047Y-134405714D01*
X105814285Y-134453333D01*
X105861904Y-134548571D01*
X105861904Y-134643809D01*
X105385714Y-134739047D01*
X106671428Y-135024761D02*
X106576190Y-135072380D01*
X106385714Y-135072380D01*
X106290476Y-135024761D01*
X106242857Y-134929523D01*
X106242857Y-134548571D01*
X106290476Y-134453333D01*
X106385714Y-134405714D01*
X106576190Y-134405714D01*
X106671428Y-134453333D01*
X106719047Y-134548571D01*
X106719047Y-134643809D01*
X106242857Y-134739047D01*
D10*
X114808095Y-94122857D02*
X116331904Y-94122857D01*
X115570000Y-94884761D02*
X115570000Y-93360952D01*
X104648095Y-94122857D02*
X106171904Y-94122857D01*
X88376190Y-115204761D02*
X88376190Y-113204761D01*
X88852380Y-113204761D01*
X89138095Y-113300000D01*
X89328571Y-113490476D01*
X89423809Y-113680952D01*
X89519047Y-114061904D01*
X89519047Y-114347619D01*
X89423809Y-114728571D01*
X89328571Y-114919047D01*
X89138095Y-115109523D01*
X88852380Y-115204761D01*
X88376190Y-115204761D01*
X88138095Y-111902857D02*
X89661904Y-111902857D01*
X88138095Y-109362857D02*
X89661904Y-109362857D01*
X88900000Y-110124761D02*
X88900000Y-108600952D01*
D12*
%TO.C,Q1*%
X109750000Y-130230000D02*
X106150000Y-130230000D01*
X109788478Y-130241522D02*
G75*
G02*
X107950000Y-134680000I-1838478J-1838478D01*
G01*
X106111522Y-130241522D02*
G75*
G03*
X107950000Y-134680000I1838478J-1838478D01*
G01*
%TO.C,U1*%
X103400000Y-101020000D02*
X99800000Y-101020000D01*
X99761522Y-101031522D02*
G75*
G03*
X101600000Y-105470000I1838478J-1838478D01*
G01*
X103438478Y-101031522D02*
G75*
G02*
X101600000Y-105470000I-1838478J-1838478D01*
G01*
%TO.C,Q2*%
X90910000Y-123770000D02*
X94510000Y-123770000D01*
X90871522Y-123758478D02*
G75*
G02*
X92710000Y-119320000I1838478J1838478D01*
G01*
X94548478Y-123758478D02*
G75*
G03*
X92710000Y-119320000I-1838478J1838478D01*
G01*
%TO.C,C1*%
X100205000Y-99109801D02*
X100605000Y-99109801D01*
X100405000Y-99309801D02*
X100405000Y-98909801D01*
X101230000Y-94959000D02*
X101970000Y-94959000D01*
X101063000Y-94999000D02*
X102137000Y-94999000D01*
X100936000Y-95039000D02*
X102264000Y-95039000D01*
X100832000Y-95079000D02*
X102368000Y-95079000D01*
X100741000Y-95119000D02*
X102459000Y-95119000D01*
X100660000Y-95159000D02*
X102540000Y-95159000D01*
X100587000Y-95199000D02*
X102613000Y-95199000D01*
X100520000Y-95239000D02*
X102680000Y-95239000D01*
X100458000Y-95279000D02*
X102742000Y-95279000D01*
X100400000Y-95319000D02*
X102800000Y-95319000D01*
X100346000Y-95359000D02*
X102854000Y-95359000D01*
X100296000Y-95399000D02*
X102904000Y-95399000D01*
X100249000Y-95439000D02*
X102951000Y-95439000D01*
X102440000Y-95479000D02*
X102996000Y-95479000D01*
X100204000Y-95479000D02*
X100760000Y-95479000D01*
X102440000Y-95519000D02*
X103038000Y-95519000D01*
X100162000Y-95519000D02*
X100760000Y-95519000D01*
X102440000Y-95559000D02*
X103078000Y-95559000D01*
X100122000Y-95559000D02*
X100760000Y-95559000D01*
X102440000Y-95599000D02*
X103116000Y-95599000D01*
X100084000Y-95599000D02*
X100760000Y-95599000D01*
X102440000Y-95639000D02*
X103152000Y-95639000D01*
X100048000Y-95639000D02*
X100760000Y-95639000D01*
X102440000Y-95679000D02*
X103187000Y-95679000D01*
X100013000Y-95679000D02*
X100760000Y-95679000D01*
X102440000Y-95719000D02*
X103219000Y-95719000D01*
X99981000Y-95719000D02*
X100760000Y-95719000D01*
X102440000Y-95759000D02*
X103250000Y-95759000D01*
X99950000Y-95759000D02*
X100760000Y-95759000D01*
X102440000Y-95799000D02*
X103280000Y-95799000D01*
X99920000Y-95799000D02*
X100760000Y-95799000D01*
X102440000Y-95839000D02*
X103308000Y-95839000D01*
X99892000Y-95839000D02*
X100760000Y-95839000D01*
X102440000Y-95879000D02*
X103335000Y-95879000D01*
X99865000Y-95879000D02*
X100760000Y-95879000D01*
X102440000Y-95919000D02*
X103360000Y-95919000D01*
X99840000Y-95919000D02*
X100760000Y-95919000D01*
X102440000Y-95959000D02*
X103385000Y-95959000D01*
X99815000Y-95959000D02*
X100760000Y-95959000D01*
X102440000Y-95999000D02*
X103408000Y-95999000D01*
X99792000Y-95999000D02*
X100760000Y-95999000D01*
X102440000Y-96039000D02*
X103430000Y-96039000D01*
X99770000Y-96039000D02*
X100760000Y-96039000D01*
X102440000Y-96079000D02*
X103451000Y-96079000D01*
X99749000Y-96079000D02*
X100760000Y-96079000D01*
X102440000Y-96119000D02*
X103470000Y-96119000D01*
X99730000Y-96119000D02*
X100760000Y-96119000D01*
X102440000Y-96159000D02*
X103489000Y-96159000D01*
X99711000Y-96159000D02*
X100760000Y-96159000D01*
X102440000Y-96199000D02*
X103507000Y-96199000D01*
X99693000Y-96199000D02*
X100760000Y-96199000D01*
X102440000Y-96239000D02*
X103524000Y-96239000D01*
X99676000Y-96239000D02*
X100760000Y-96239000D01*
X102440000Y-96279000D02*
X103540000Y-96279000D01*
X99660000Y-96279000D02*
X100760000Y-96279000D01*
X102440000Y-96319000D02*
X103554000Y-96319000D01*
X99646000Y-96319000D02*
X100760000Y-96319000D01*
X102440000Y-96360000D02*
X103568000Y-96360000D01*
X99632000Y-96360000D02*
X100760000Y-96360000D01*
X102440000Y-96400000D02*
X103582000Y-96400000D01*
X99618000Y-96400000D02*
X100760000Y-96400000D01*
X102440000Y-96440000D02*
X103594000Y-96440000D01*
X99606000Y-96440000D02*
X100760000Y-96440000D01*
X102440000Y-96480000D02*
X103605000Y-96480000D01*
X99595000Y-96480000D02*
X100760000Y-96480000D01*
X102440000Y-96520000D02*
X103616000Y-96520000D01*
X99584000Y-96520000D02*
X100760000Y-96520000D01*
X102440000Y-96560000D02*
X103625000Y-96560000D01*
X99575000Y-96560000D02*
X100760000Y-96560000D01*
X102440000Y-96600000D02*
X103634000Y-96600000D01*
X99566000Y-96600000D02*
X100760000Y-96600000D01*
X102440000Y-96640000D02*
X103642000Y-96640000D01*
X99558000Y-96640000D02*
X100760000Y-96640000D01*
X102440000Y-96680000D02*
X103650000Y-96680000D01*
X99550000Y-96680000D02*
X100760000Y-96680000D01*
X102440000Y-96720000D02*
X103656000Y-96720000D01*
X99544000Y-96720000D02*
X100760000Y-96720000D01*
X102440000Y-96760000D02*
X103662000Y-96760000D01*
X99538000Y-96760000D02*
X100760000Y-96760000D01*
X102440000Y-96800000D02*
X103667000Y-96800000D01*
X99533000Y-96800000D02*
X100760000Y-96800000D01*
X102440000Y-96840000D02*
X103671000Y-96840000D01*
X99529000Y-96840000D02*
X100760000Y-96840000D01*
X102440000Y-96880000D02*
X103674000Y-96880000D01*
X99526000Y-96880000D02*
X100760000Y-96880000D01*
X102440000Y-96920000D02*
X103677000Y-96920000D01*
X99523000Y-96920000D02*
X100760000Y-96920000D01*
X99521000Y-96960000D02*
X100760000Y-96960000D01*
X102440000Y-96960000D02*
X103679000Y-96960000D01*
X99520000Y-97000000D02*
X100760000Y-97000000D01*
X102440000Y-97000000D02*
X103680000Y-97000000D01*
X99520000Y-97040000D02*
X100760000Y-97040000D01*
X102440000Y-97040000D02*
X103680000Y-97040000D01*
X103720000Y-97040000D02*
G75*
G03*
X103720000Y-97040000I-2120000J0D01*
G01*
%TO.C,C2*%
X97370000Y-102120000D02*
G75*
G03*
X97370000Y-102120000I-2120000J0D01*
G01*
X96090000Y-102120000D02*
X97330000Y-102120000D01*
X93170000Y-102120000D02*
X94410000Y-102120000D01*
X96090000Y-102080000D02*
X97330000Y-102080000D01*
X93170000Y-102080000D02*
X94410000Y-102080000D01*
X96090000Y-102040000D02*
X97329000Y-102040000D01*
X93171000Y-102040000D02*
X94410000Y-102040000D01*
X93173000Y-102000000D02*
X94410000Y-102000000D01*
X96090000Y-102000000D02*
X97327000Y-102000000D01*
X93176000Y-101960000D02*
X94410000Y-101960000D01*
X96090000Y-101960000D02*
X97324000Y-101960000D01*
X93179000Y-101920000D02*
X94410000Y-101920000D01*
X96090000Y-101920000D02*
X97321000Y-101920000D01*
X93183000Y-101880000D02*
X94410000Y-101880000D01*
X96090000Y-101880000D02*
X97317000Y-101880000D01*
X93188000Y-101840000D02*
X94410000Y-101840000D01*
X96090000Y-101840000D02*
X97312000Y-101840000D01*
X93194000Y-101800000D02*
X94410000Y-101800000D01*
X96090000Y-101800000D02*
X97306000Y-101800000D01*
X93200000Y-101760000D02*
X94410000Y-101760000D01*
X96090000Y-101760000D02*
X97300000Y-101760000D01*
X93208000Y-101720000D02*
X94410000Y-101720000D01*
X96090000Y-101720000D02*
X97292000Y-101720000D01*
X93216000Y-101680000D02*
X94410000Y-101680000D01*
X96090000Y-101680000D02*
X97284000Y-101680000D01*
X93225000Y-101640000D02*
X94410000Y-101640000D01*
X96090000Y-101640000D02*
X97275000Y-101640000D01*
X93234000Y-101600000D02*
X94410000Y-101600000D01*
X96090000Y-101600000D02*
X97266000Y-101600000D01*
X93245000Y-101560000D02*
X94410000Y-101560000D01*
X96090000Y-101560000D02*
X97255000Y-101560000D01*
X93256000Y-101520000D02*
X94410000Y-101520000D01*
X96090000Y-101520000D02*
X97244000Y-101520000D01*
X93268000Y-101480000D02*
X94410000Y-101480000D01*
X96090000Y-101480000D02*
X97232000Y-101480000D01*
X93282000Y-101440000D02*
X94410000Y-101440000D01*
X96090000Y-101440000D02*
X97218000Y-101440000D01*
X93296000Y-101399000D02*
X94410000Y-101399000D01*
X96090000Y-101399000D02*
X97204000Y-101399000D01*
X93310000Y-101359000D02*
X94410000Y-101359000D01*
X96090000Y-101359000D02*
X97190000Y-101359000D01*
X93326000Y-101319000D02*
X94410000Y-101319000D01*
X96090000Y-101319000D02*
X97174000Y-101319000D01*
X93343000Y-101279000D02*
X94410000Y-101279000D01*
X96090000Y-101279000D02*
X97157000Y-101279000D01*
X93361000Y-101239000D02*
X94410000Y-101239000D01*
X96090000Y-101239000D02*
X97139000Y-101239000D01*
X93380000Y-101199000D02*
X94410000Y-101199000D01*
X96090000Y-101199000D02*
X97120000Y-101199000D01*
X93399000Y-101159000D02*
X94410000Y-101159000D01*
X96090000Y-101159000D02*
X97101000Y-101159000D01*
X93420000Y-101119000D02*
X94410000Y-101119000D01*
X96090000Y-101119000D02*
X97080000Y-101119000D01*
X93442000Y-101079000D02*
X94410000Y-101079000D01*
X96090000Y-101079000D02*
X97058000Y-101079000D01*
X93465000Y-101039000D02*
X94410000Y-101039000D01*
X96090000Y-101039000D02*
X97035000Y-101039000D01*
X93490000Y-100999000D02*
X94410000Y-100999000D01*
X96090000Y-100999000D02*
X97010000Y-100999000D01*
X93515000Y-100959000D02*
X94410000Y-100959000D01*
X96090000Y-100959000D02*
X96985000Y-100959000D01*
X93542000Y-100919000D02*
X94410000Y-100919000D01*
X96090000Y-100919000D02*
X96958000Y-100919000D01*
X93570000Y-100879000D02*
X94410000Y-100879000D01*
X96090000Y-100879000D02*
X96930000Y-100879000D01*
X93600000Y-100839000D02*
X94410000Y-100839000D01*
X96090000Y-100839000D02*
X96900000Y-100839000D01*
X93631000Y-100799000D02*
X94410000Y-100799000D01*
X96090000Y-100799000D02*
X96869000Y-100799000D01*
X93663000Y-100759000D02*
X94410000Y-100759000D01*
X96090000Y-100759000D02*
X96837000Y-100759000D01*
X93698000Y-100719000D02*
X94410000Y-100719000D01*
X96090000Y-100719000D02*
X96802000Y-100719000D01*
X93734000Y-100679000D02*
X94410000Y-100679000D01*
X96090000Y-100679000D02*
X96766000Y-100679000D01*
X93772000Y-100639000D02*
X94410000Y-100639000D01*
X96090000Y-100639000D02*
X96728000Y-100639000D01*
X93812000Y-100599000D02*
X94410000Y-100599000D01*
X96090000Y-100599000D02*
X96688000Y-100599000D01*
X93854000Y-100559000D02*
X94410000Y-100559000D01*
X96090000Y-100559000D02*
X96646000Y-100559000D01*
X93899000Y-100519000D02*
X96601000Y-100519000D01*
X93946000Y-100479000D02*
X96554000Y-100479000D01*
X93996000Y-100439000D02*
X96504000Y-100439000D01*
X94050000Y-100399000D02*
X96450000Y-100399000D01*
X94108000Y-100359000D02*
X96392000Y-100359000D01*
X94170000Y-100319000D02*
X96330000Y-100319000D01*
X94237000Y-100279000D02*
X96263000Y-100279000D01*
X94310000Y-100239000D02*
X96190000Y-100239000D01*
X94391000Y-100199000D02*
X96109000Y-100199000D01*
X94482000Y-100159000D02*
X96018000Y-100159000D01*
X94586000Y-100119000D02*
X95914000Y-100119000D01*
X94713000Y-100079000D02*
X95787000Y-100079000D01*
X94880000Y-100039000D02*
X95620000Y-100039000D01*
X94055000Y-104389801D02*
X94055000Y-103989801D01*
X93855000Y-104189801D02*
X94255000Y-104189801D01*
%TO.C,Capacitive_Sensor_CJMCU-1010*%
X91000000Y-116910000D02*
X95020000Y-116910000D01*
X95020000Y-116910000D02*
X95020000Y-106690000D01*
X95020000Y-106690000D02*
X91000000Y-106690000D01*
X91000000Y-106690000D02*
X91000000Y-116910000D01*
X92710000Y-116910000D02*
X92710000Y-116410000D01*
X92710000Y-116410000D02*
X91500000Y-116410000D01*
X91500000Y-116410000D02*
X91500000Y-107190000D01*
X91500000Y-107190000D02*
X92710000Y-107190000D01*
X92710000Y-107190000D02*
X92710000Y-106690000D01*
X93520000Y-116910000D02*
X93520000Y-115910000D01*
X93520000Y-115910000D02*
X95020000Y-115910000D01*
X93520000Y-106690000D02*
X93520000Y-107690000D01*
X93520000Y-107690000D02*
X95020000Y-107690000D01*
X92820000Y-117210000D02*
X95320000Y-117210000D01*
X95320000Y-117210000D02*
X95320000Y-114710000D01*
%TO.C,D1*%
X109510000Y-102836000D02*
X109510000Y-102680000D01*
X109510000Y-100520000D02*
X109510000Y-100364000D01*
X106277665Y-102678608D02*
G75*
G03*
X109510000Y-102835516I1672335J1078608D01*
G01*
X106277665Y-100521392D02*
G75*
G02*
X109510000Y-100364484I1672335J-1078608D01*
G01*
X106908870Y-102679837D02*
G75*
G03*
X108990961Y-102680000I1041130J1079837D01*
G01*
X106908870Y-100520163D02*
G75*
G02*
X108990961Y-100520000I1041130J-1079837D01*
G01*
%TO.C,Power1*%
X114370000Y-96960000D02*
X114370000Y-92940000D01*
X114370000Y-92940000D02*
X106650000Y-92940000D01*
X106650000Y-92940000D02*
X106650000Y-96960000D01*
X106650000Y-96960000D02*
X114370000Y-96960000D01*
X114370000Y-95250000D02*
X113870000Y-95250000D01*
X113870000Y-95250000D02*
X113870000Y-96460000D01*
X113870000Y-96460000D02*
X107150000Y-96460000D01*
X107150000Y-96460000D02*
X107150000Y-95250000D01*
X107150000Y-95250000D02*
X106650000Y-95250000D01*
X114370000Y-94440000D02*
X113370000Y-94440000D01*
X113370000Y-94440000D02*
X113370000Y-92940000D01*
X106650000Y-94440000D02*
X107650000Y-94440000D01*
X107650000Y-94440000D02*
X107650000Y-92940000D01*
X114670000Y-95140000D02*
X114670000Y-92640000D01*
X114670000Y-92640000D02*
X112170000Y-92640000D01*
%TO.C,Q3*%
X123940000Y-96090000D02*
X120090000Y-96090000D01*
X120051389Y-96099878D02*
G75*
G03*
X123940000Y-96090000I1948611J-1690122D01*
G01*
%TO.C,R1*%
X126080000Y-117490000D02*
X127920000Y-117490000D01*
X127920000Y-117490000D02*
X127920000Y-113650000D01*
X127920000Y-113650000D02*
X126080000Y-113650000D01*
X126080000Y-113650000D02*
X126080000Y-117490000D01*
X127000000Y-118440000D02*
X127000000Y-117490000D01*
X127000000Y-112700000D02*
X127000000Y-113650000D01*
%TO.C,R2*%
X120650000Y-112700000D02*
X120650000Y-113650000D01*
X120650000Y-118440000D02*
X120650000Y-117490000D01*
X119730000Y-113650000D02*
X119730000Y-117490000D01*
X121570000Y-113650000D02*
X119730000Y-113650000D01*
X121570000Y-117490000D02*
X121570000Y-113650000D01*
X119730000Y-117490000D02*
X121570000Y-117490000D01*
%TO.C,R3*%
X118730000Y-105760000D02*
X118730000Y-107600000D01*
X118730000Y-107600000D02*
X122570000Y-107600000D01*
X122570000Y-107600000D02*
X122570000Y-105760000D01*
X122570000Y-105760000D02*
X118730000Y-105760000D01*
X117780000Y-106680000D02*
X118730000Y-106680000D01*
X123520000Y-106680000D02*
X122570000Y-106680000D01*
%TO.C,R4*%
X114650000Y-132730000D02*
X116490000Y-132730000D01*
X116490000Y-132730000D02*
X116490000Y-128890000D01*
X116490000Y-128890000D02*
X114650000Y-128890000D01*
X114650000Y-128890000D02*
X114650000Y-132730000D01*
X115570000Y-133680000D02*
X115570000Y-132730000D01*
X115570000Y-127940000D02*
X115570000Y-128890000D01*
%TO.C,R5*%
X92060000Y-126080000D02*
X92060000Y-127920000D01*
X92060000Y-127920000D02*
X95900000Y-127920000D01*
X95900000Y-127920000D02*
X95900000Y-126080000D01*
X95900000Y-126080000D02*
X92060000Y-126080000D01*
X91110000Y-127000000D02*
X92060000Y-127000000D01*
X96850000Y-127000000D02*
X95900000Y-127000000D01*
%TO.C,R6*%
X115570000Y-122250000D02*
X115570000Y-121300000D01*
X115570000Y-116510000D02*
X115570000Y-117460000D01*
X116490000Y-121300000D02*
X116490000Y-117460000D01*
X114650000Y-121300000D02*
X116490000Y-121300000D01*
X114650000Y-117460000D02*
X114650000Y-121300000D01*
X116490000Y-117460000D02*
X114650000Y-117460000D01*
%TO.C,R7*%
X99390000Y-130810000D02*
X98440000Y-130810000D01*
X93650000Y-130810000D02*
X94600000Y-130810000D01*
X98440000Y-129890000D02*
X94600000Y-129890000D01*
X98440000Y-131730000D02*
X98440000Y-129890000D01*
X94600000Y-131730000D02*
X98440000Y-131730000D01*
X94600000Y-129890000D02*
X94600000Y-131730000D01*
D13*
%TO.C,JP1*%
X130398520Y-105750360D02*
X132897880Y-105750360D01*
X132897880Y-105750360D02*
X132897880Y-126250700D01*
X132897880Y-126250700D02*
X130398520Y-126250700D01*
X130398520Y-105750360D02*
X130398520Y-126250700D01*
X110901480Y-105750360D02*
X108402120Y-105750360D01*
X108402120Y-105750360D02*
X108402120Y-126250700D01*
X108402120Y-126250700D02*
X110901480Y-126250700D01*
X110901480Y-105750360D02*
X110901480Y-126250700D01*
D12*
%TO.C,U3*%
X100600000Y-106620000D02*
X98950000Y-106620000D01*
X98950000Y-106620000D02*
X98950000Y-124520000D01*
X98950000Y-124520000D02*
X104250000Y-124520000D01*
X104250000Y-124520000D02*
X104250000Y-106620000D01*
X104250000Y-106620000D02*
X102600000Y-106620000D01*
X102600000Y-106620000D02*
G75*
G02*
X100600000Y-106620000I-1000000J0D01*
G01*
%TO.C,150ohm1*%
X115920000Y-100980000D02*
X117760000Y-100980000D01*
X117760000Y-100980000D02*
X117760000Y-97140000D01*
X117760000Y-97140000D02*
X115920000Y-97140000D01*
X115920000Y-97140000D02*
X115920000Y-100980000D01*
X116840000Y-101930000D02*
X116840000Y-100980000D01*
X116840000Y-96190000D02*
X116840000Y-97140000D01*
%TO.C,Q1*%
D11*
X107854761Y-136187619D02*
X107759523Y-136140000D01*
X107664285Y-136044761D01*
X107521428Y-135901904D01*
X107426190Y-135854285D01*
X107330952Y-135854285D01*
X107378571Y-136092380D02*
X107283333Y-136044761D01*
X107188095Y-135949523D01*
X107140476Y-135759047D01*
X107140476Y-135425714D01*
X107188095Y-135235238D01*
X107283333Y-135140000D01*
X107378571Y-135092380D01*
X107569047Y-135092380D01*
X107664285Y-135140000D01*
X107759523Y-135235238D01*
X107807142Y-135425714D01*
X107807142Y-135759047D01*
X107759523Y-135949523D01*
X107664285Y-136044761D01*
X107569047Y-136092380D01*
X107378571Y-136092380D01*
X108759523Y-136092380D02*
X108188095Y-136092380D01*
X108473809Y-136092380D02*
X108473809Y-135092380D01*
X108378571Y-135235238D01*
X108283333Y-135330476D01*
X108188095Y-135378095D01*
%TO.C,U1*%
X100838095Y-105882380D02*
X100838095Y-106691904D01*
X100885714Y-106787142D01*
X100933333Y-106834761D01*
X101028571Y-106882380D01*
X101219047Y-106882380D01*
X101314285Y-106834761D01*
X101361904Y-106787142D01*
X101409523Y-106691904D01*
X101409523Y-105882380D01*
X102409523Y-106882380D02*
X101838095Y-106882380D01*
X102123809Y-106882380D02*
X102123809Y-105882380D01*
X102028571Y-106025238D01*
X101933333Y-106120476D01*
X101838095Y-106168095D01*
%TO.C,Q2*%
X92614761Y-118907619D02*
X92519523Y-118860000D01*
X92424285Y-118764761D01*
X92281428Y-118621904D01*
X92186190Y-118574285D01*
X92090952Y-118574285D01*
X92138571Y-118812380D02*
X92043333Y-118764761D01*
X91948095Y-118669523D01*
X91900476Y-118479047D01*
X91900476Y-118145714D01*
X91948095Y-117955238D01*
X92043333Y-117860000D01*
X92138571Y-117812380D01*
X92329047Y-117812380D01*
X92424285Y-117860000D01*
X92519523Y-117955238D01*
X92567142Y-118145714D01*
X92567142Y-118479047D01*
X92519523Y-118669523D01*
X92424285Y-118764761D01*
X92329047Y-118812380D01*
X92138571Y-118812380D01*
X92948095Y-117907619D02*
X92995714Y-117860000D01*
X93090952Y-117812380D01*
X93329047Y-117812380D01*
X93424285Y-117860000D01*
X93471904Y-117907619D01*
X93519523Y-118002857D01*
X93519523Y-118098095D01*
X93471904Y-118240952D01*
X92900476Y-118812380D01*
X93519523Y-118812380D01*
%TO.C,C1*%
X98707142Y-97206666D02*
X98754761Y-97254285D01*
X98802380Y-97397142D01*
X98802380Y-97492380D01*
X98754761Y-97635238D01*
X98659523Y-97730476D01*
X98564285Y-97778095D01*
X98373809Y-97825714D01*
X98230952Y-97825714D01*
X98040476Y-97778095D01*
X97945238Y-97730476D01*
X97850000Y-97635238D01*
X97802380Y-97492380D01*
X97802380Y-97397142D01*
X97850000Y-97254285D01*
X97897619Y-97206666D01*
X98802380Y-96254285D02*
X98802380Y-96825714D01*
X98802380Y-96540000D02*
X97802380Y-96540000D01*
X97945238Y-96635238D01*
X98040476Y-96730476D01*
X98088095Y-96825714D01*
%TO.C,C2*%
X92357142Y-102286666D02*
X92404761Y-102334285D01*
X92452380Y-102477142D01*
X92452380Y-102572380D01*
X92404761Y-102715238D01*
X92309523Y-102810476D01*
X92214285Y-102858095D01*
X92023809Y-102905714D01*
X91880952Y-102905714D01*
X91690476Y-102858095D01*
X91595238Y-102810476D01*
X91500000Y-102715238D01*
X91452380Y-102572380D01*
X91452380Y-102477142D01*
X91500000Y-102334285D01*
X91547619Y-102286666D01*
X91547619Y-101905714D02*
X91500000Y-101858095D01*
X91452380Y-101762857D01*
X91452380Y-101524761D01*
X91500000Y-101429523D01*
X91547619Y-101381904D01*
X91642857Y-101334285D01*
X91738095Y-101334285D01*
X91880952Y-101381904D01*
X92452380Y-101953333D01*
X92452380Y-101334285D01*
%TO.C,Capacitive_Sensor_CJMCU-1010*%
X90267142Y-123133333D02*
X90314761Y-123180952D01*
X90362380Y-123323809D01*
X90362380Y-123419047D01*
X90314761Y-123561904D01*
X90219523Y-123657142D01*
X90124285Y-123704761D01*
X89933809Y-123752380D01*
X89790952Y-123752380D01*
X89600476Y-123704761D01*
X89505238Y-123657142D01*
X89410000Y-123561904D01*
X89362380Y-123419047D01*
X89362380Y-123323809D01*
X89410000Y-123180952D01*
X89457619Y-123133333D01*
X90362380Y-122276190D02*
X89838571Y-122276190D01*
X89743333Y-122323809D01*
X89695714Y-122419047D01*
X89695714Y-122609523D01*
X89743333Y-122704761D01*
X90314761Y-122276190D02*
X90362380Y-122371428D01*
X90362380Y-122609523D01*
X90314761Y-122704761D01*
X90219523Y-122752380D01*
X90124285Y-122752380D01*
X90029047Y-122704761D01*
X89981428Y-122609523D01*
X89981428Y-122371428D01*
X89933809Y-122276190D01*
X89695714Y-121799999D02*
X90695714Y-121799999D01*
X89743333Y-121799999D02*
X89695714Y-121704761D01*
X89695714Y-121514285D01*
X89743333Y-121419047D01*
X89790952Y-121371428D01*
X89886190Y-121323809D01*
X90171904Y-121323809D01*
X90267142Y-121371428D01*
X90314761Y-121419047D01*
X90362380Y-121514285D01*
X90362380Y-121704761D01*
X90314761Y-121799999D01*
X90362380Y-120466666D02*
X89838571Y-120466666D01*
X89743333Y-120514285D01*
X89695714Y-120609523D01*
X89695714Y-120799999D01*
X89743333Y-120895238D01*
X90314761Y-120466666D02*
X90362380Y-120561904D01*
X90362380Y-120799999D01*
X90314761Y-120895238D01*
X90219523Y-120942857D01*
X90124285Y-120942857D01*
X90029047Y-120895238D01*
X89981428Y-120799999D01*
X89981428Y-120561904D01*
X89933809Y-120466666D01*
X90314761Y-119561904D02*
X90362380Y-119657142D01*
X90362380Y-119847619D01*
X90314761Y-119942857D01*
X90267142Y-119990476D01*
X90171904Y-120038095D01*
X89886190Y-120038095D01*
X89790952Y-119990476D01*
X89743333Y-119942857D01*
X89695714Y-119847619D01*
X89695714Y-119657142D01*
X89743333Y-119561904D01*
X90362380Y-119133333D02*
X89695714Y-119133333D01*
X89362380Y-119133333D02*
X89410000Y-119180952D01*
X89457619Y-119133333D01*
X89410000Y-119085714D01*
X89362380Y-119133333D01*
X89457619Y-119133333D01*
X89695714Y-118800000D02*
X89695714Y-118419047D01*
X89362380Y-118657142D02*
X90219523Y-118657142D01*
X90314761Y-118609523D01*
X90362380Y-118514285D01*
X90362380Y-118419047D01*
X90362380Y-118085714D02*
X89695714Y-118085714D01*
X89362380Y-118085714D02*
X89410000Y-118133333D01*
X89457619Y-118085714D01*
X89410000Y-118038095D01*
X89362380Y-118085714D01*
X89457619Y-118085714D01*
X89695714Y-117704761D02*
X90362380Y-117466666D01*
X89695714Y-117228571D01*
X90314761Y-116466666D02*
X90362380Y-116561904D01*
X90362380Y-116752380D01*
X90314761Y-116847619D01*
X90219523Y-116895238D01*
X89838571Y-116895238D01*
X89743333Y-116847619D01*
X89695714Y-116752380D01*
X89695714Y-116561904D01*
X89743333Y-116466666D01*
X89838571Y-116419047D01*
X89933809Y-116419047D01*
X90029047Y-116895238D01*
X90457619Y-116228571D02*
X90457619Y-115466666D01*
X90314761Y-115276190D02*
X90362380Y-115133333D01*
X90362380Y-114895238D01*
X90314761Y-114800000D01*
X90267142Y-114752380D01*
X90171904Y-114704761D01*
X90076666Y-114704761D01*
X89981428Y-114752380D01*
X89933809Y-114800000D01*
X89886190Y-114895238D01*
X89838571Y-115085714D01*
X89790952Y-115180952D01*
X89743333Y-115228571D01*
X89648095Y-115276190D01*
X89552857Y-115276190D01*
X89457619Y-115228571D01*
X89410000Y-115180952D01*
X89362380Y-115085714D01*
X89362380Y-114847619D01*
X89410000Y-114704761D01*
X90314761Y-113895238D02*
X90362380Y-113990476D01*
X90362380Y-114180952D01*
X90314761Y-114276190D01*
X90219523Y-114323809D01*
X89838571Y-114323809D01*
X89743333Y-114276190D01*
X89695714Y-114180952D01*
X89695714Y-113990476D01*
X89743333Y-113895238D01*
X89838571Y-113847619D01*
X89933809Y-113847619D01*
X90029047Y-114323809D01*
X89695714Y-113419047D02*
X90362380Y-113419047D01*
X89790952Y-113419047D02*
X89743333Y-113371428D01*
X89695714Y-113276190D01*
X89695714Y-113133333D01*
X89743333Y-113038095D01*
X89838571Y-112990476D01*
X90362380Y-112990476D01*
X90314761Y-112561904D02*
X90362380Y-112466666D01*
X90362380Y-112276190D01*
X90314761Y-112180952D01*
X90219523Y-112133333D01*
X90171904Y-112133333D01*
X90076666Y-112180952D01*
X90029047Y-112276190D01*
X90029047Y-112419047D01*
X89981428Y-112514285D01*
X89886190Y-112561904D01*
X89838571Y-112561904D01*
X89743333Y-112514285D01*
X89695714Y-112419047D01*
X89695714Y-112276190D01*
X89743333Y-112180952D01*
X90362380Y-111561904D02*
X90314761Y-111657142D01*
X90267142Y-111704761D01*
X90171904Y-111752380D01*
X89886190Y-111752380D01*
X89790952Y-111704761D01*
X89743333Y-111657142D01*
X89695714Y-111561904D01*
X89695714Y-111419047D01*
X89743333Y-111323809D01*
X89790952Y-111276190D01*
X89886190Y-111228571D01*
X90171904Y-111228571D01*
X90267142Y-111276190D01*
X90314761Y-111323809D01*
X90362380Y-111419047D01*
X90362380Y-111561904D01*
X90362380Y-110800000D02*
X89695714Y-110800000D01*
X89886190Y-110800000D02*
X89790952Y-110752380D01*
X89743333Y-110704761D01*
X89695714Y-110609523D01*
X89695714Y-110514285D01*
X90457619Y-110419047D02*
X90457619Y-109657142D01*
X90267142Y-108847619D02*
X90314761Y-108895238D01*
X90362380Y-109038095D01*
X90362380Y-109133333D01*
X90314761Y-109276190D01*
X90219523Y-109371428D01*
X90124285Y-109419047D01*
X89933809Y-109466666D01*
X89790952Y-109466666D01*
X89600476Y-109419047D01*
X89505238Y-109371428D01*
X89410000Y-109276190D01*
X89362380Y-109133333D01*
X89362380Y-109038095D01*
X89410000Y-108895238D01*
X89457619Y-108847619D01*
X89362380Y-108133333D02*
X90076666Y-108133333D01*
X90219523Y-108180952D01*
X90314761Y-108276190D01*
X90362380Y-108419047D01*
X90362380Y-108514285D01*
X90362380Y-107657142D02*
X89362380Y-107657142D01*
X90076666Y-107323809D01*
X89362380Y-106990476D01*
X90362380Y-106990476D01*
X90267142Y-105942857D02*
X90314761Y-105990476D01*
X90362380Y-106133333D01*
X90362380Y-106228571D01*
X90314761Y-106371428D01*
X90219523Y-106466666D01*
X90124285Y-106514285D01*
X89933809Y-106561904D01*
X89790952Y-106561904D01*
X89600476Y-106514285D01*
X89505238Y-106466666D01*
X89410000Y-106371428D01*
X89362380Y-106228571D01*
X89362380Y-106133333D01*
X89410000Y-105990476D01*
X89457619Y-105942857D01*
X89362380Y-105514285D02*
X90171904Y-105514285D01*
X90267142Y-105466666D01*
X90314761Y-105419047D01*
X90362380Y-105323809D01*
X90362380Y-105133333D01*
X90314761Y-105038095D01*
X90267142Y-104990476D01*
X90171904Y-104942857D01*
X89362380Y-104942857D01*
X89981428Y-104466666D02*
X89981428Y-103704761D01*
X90362380Y-102704761D02*
X90362380Y-103276190D01*
X90362380Y-102990476D02*
X89362380Y-102990476D01*
X89505238Y-103085714D01*
X89600476Y-103180952D01*
X89648095Y-103276190D01*
X89362380Y-102085714D02*
X89362380Y-101990476D01*
X89410000Y-101895238D01*
X89457619Y-101847619D01*
X89552857Y-101800000D01*
X89743333Y-101752380D01*
X89981428Y-101752380D01*
X90171904Y-101800000D01*
X90267142Y-101847619D01*
X90314761Y-101895238D01*
X90362380Y-101990476D01*
X90362380Y-102085714D01*
X90314761Y-102180952D01*
X90267142Y-102228571D01*
X90171904Y-102276190D01*
X89981428Y-102323809D01*
X89743333Y-102323809D01*
X89552857Y-102276190D01*
X89457619Y-102228571D01*
X89410000Y-102180952D01*
X89362380Y-102085714D01*
X90362380Y-100800000D02*
X90362380Y-101371428D01*
X90362380Y-101085714D02*
X89362380Y-101085714D01*
X89505238Y-101180952D01*
X89600476Y-101276190D01*
X89648095Y-101371428D01*
X89362380Y-100180952D02*
X89362380Y-100085714D01*
X89410000Y-99990476D01*
X89457619Y-99942857D01*
X89552857Y-99895238D01*
X89743333Y-99847619D01*
X89981428Y-99847619D01*
X90171904Y-99895238D01*
X90267142Y-99942857D01*
X90314761Y-99990476D01*
X90362380Y-100085714D01*
X90362380Y-100180952D01*
X90314761Y-100276190D01*
X90267142Y-100323809D01*
X90171904Y-100371428D01*
X89981428Y-100419047D01*
X89743333Y-100419047D01*
X89552857Y-100371428D01*
X89457619Y-100323809D01*
X89410000Y-100276190D01*
X89362380Y-100180952D01*
%TO.C,D1*%
X107211904Y-105012380D02*
X107211904Y-104012380D01*
X107450000Y-104012380D01*
X107592857Y-104060000D01*
X107688095Y-104155238D01*
X107735714Y-104250476D01*
X107783333Y-104440952D01*
X107783333Y-104583809D01*
X107735714Y-104774285D01*
X107688095Y-104869523D01*
X107592857Y-104964761D01*
X107450000Y-105012380D01*
X107211904Y-105012380D01*
X108735714Y-105012380D02*
X108164285Y-105012380D01*
X108450000Y-105012380D02*
X108450000Y-104012380D01*
X108354761Y-104155238D01*
X108259523Y-104250476D01*
X108164285Y-104298095D01*
%TO.C,Power1*%
X108057619Y-98502380D02*
X108057619Y-97502380D01*
X108438571Y-97502380D01*
X108533809Y-97550000D01*
X108581428Y-97597619D01*
X108629047Y-97692857D01*
X108629047Y-97835714D01*
X108581428Y-97930952D01*
X108533809Y-97978571D01*
X108438571Y-98026190D01*
X108057619Y-98026190D01*
X109200476Y-98502380D02*
X109105238Y-98454761D01*
X109057619Y-98407142D01*
X109010000Y-98311904D01*
X109010000Y-98026190D01*
X109057619Y-97930952D01*
X109105238Y-97883333D01*
X109200476Y-97835714D01*
X109343333Y-97835714D01*
X109438571Y-97883333D01*
X109486190Y-97930952D01*
X109533809Y-98026190D01*
X109533809Y-98311904D01*
X109486190Y-98407142D01*
X109438571Y-98454761D01*
X109343333Y-98502380D01*
X109200476Y-98502380D01*
X109867142Y-97835714D02*
X110057619Y-98502380D01*
X110248095Y-98026190D01*
X110438571Y-98502380D01*
X110629047Y-97835714D01*
X111390952Y-98454761D02*
X111295714Y-98502380D01*
X111105238Y-98502380D01*
X111010000Y-98454761D01*
X110962380Y-98359523D01*
X110962380Y-97978571D01*
X111010000Y-97883333D01*
X111105238Y-97835714D01*
X111295714Y-97835714D01*
X111390952Y-97883333D01*
X111438571Y-97978571D01*
X111438571Y-98073809D01*
X110962380Y-98169047D01*
X111867142Y-98502380D02*
X111867142Y-97835714D01*
X111867142Y-98026190D02*
X111914761Y-97930952D01*
X111962380Y-97883333D01*
X112057619Y-97835714D01*
X112152857Y-97835714D01*
X113010000Y-98502380D02*
X112438571Y-98502380D01*
X112724285Y-98502380D02*
X112724285Y-97502380D01*
X112629047Y-97645238D01*
X112533809Y-97740476D01*
X112438571Y-97788095D01*
%TO.C,Q3*%
X121904761Y-101897619D02*
X121809523Y-101850000D01*
X121714285Y-101754761D01*
X121571428Y-101611904D01*
X121476190Y-101564285D01*
X121380952Y-101564285D01*
X121428571Y-101802380D02*
X121333333Y-101754761D01*
X121238095Y-101659523D01*
X121190476Y-101469047D01*
X121190476Y-101135714D01*
X121238095Y-100945238D01*
X121333333Y-100850000D01*
X121428571Y-100802380D01*
X121619047Y-100802380D01*
X121714285Y-100850000D01*
X121809523Y-100945238D01*
X121857142Y-101135714D01*
X121857142Y-101469047D01*
X121809523Y-101659523D01*
X121714285Y-101754761D01*
X121619047Y-101802380D01*
X121428571Y-101802380D01*
X122190476Y-100802380D02*
X122809523Y-100802380D01*
X122476190Y-101183333D01*
X122619047Y-101183333D01*
X122714285Y-101230952D01*
X122761904Y-101278571D01*
X122809523Y-101373809D01*
X122809523Y-101611904D01*
X122761904Y-101707142D01*
X122714285Y-101754761D01*
X122619047Y-101802380D01*
X122333333Y-101802380D01*
X122238095Y-101754761D01*
X122190476Y-101707142D01*
%TO.C,R1*%
X125532380Y-115736666D02*
X125056190Y-116070000D01*
X125532380Y-116308095D02*
X124532380Y-116308095D01*
X124532380Y-115927142D01*
X124580000Y-115831904D01*
X124627619Y-115784285D01*
X124722857Y-115736666D01*
X124865714Y-115736666D01*
X124960952Y-115784285D01*
X125008571Y-115831904D01*
X125056190Y-115927142D01*
X125056190Y-116308095D01*
X125532380Y-114784285D02*
X125532380Y-115355714D01*
X125532380Y-115070000D02*
X124532380Y-115070000D01*
X124675238Y-115165238D01*
X124770476Y-115260476D01*
X124818095Y-115355714D01*
%TO.C,R2*%
X119182380Y-115736666D02*
X118706190Y-116070000D01*
X119182380Y-116308095D02*
X118182380Y-116308095D01*
X118182380Y-115927142D01*
X118230000Y-115831904D01*
X118277619Y-115784285D01*
X118372857Y-115736666D01*
X118515714Y-115736666D01*
X118610952Y-115784285D01*
X118658571Y-115831904D01*
X118706190Y-115927142D01*
X118706190Y-116308095D01*
X118277619Y-115355714D02*
X118230000Y-115308095D01*
X118182380Y-115212857D01*
X118182380Y-114974761D01*
X118230000Y-114879523D01*
X118277619Y-114831904D01*
X118372857Y-114784285D01*
X118468095Y-114784285D01*
X118610952Y-114831904D01*
X119182380Y-115403333D01*
X119182380Y-114784285D01*
%TO.C,R3*%
X120483333Y-105212380D02*
X120150000Y-104736190D01*
X119911904Y-105212380D02*
X119911904Y-104212380D01*
X120292857Y-104212380D01*
X120388095Y-104260000D01*
X120435714Y-104307619D01*
X120483333Y-104402857D01*
X120483333Y-104545714D01*
X120435714Y-104640952D01*
X120388095Y-104688571D01*
X120292857Y-104736190D01*
X119911904Y-104736190D01*
X120816666Y-104212380D02*
X121435714Y-104212380D01*
X121102380Y-104593333D01*
X121245238Y-104593333D01*
X121340476Y-104640952D01*
X121388095Y-104688571D01*
X121435714Y-104783809D01*
X121435714Y-105021904D01*
X121388095Y-105117142D01*
X121340476Y-105164761D01*
X121245238Y-105212380D01*
X120959523Y-105212380D01*
X120864285Y-105164761D01*
X120816666Y-105117142D01*
%TO.C,R4*%
X114102380Y-130976666D02*
X113626190Y-131310000D01*
X114102380Y-131548095D02*
X113102380Y-131548095D01*
X113102380Y-131167142D01*
X113150000Y-131071904D01*
X113197619Y-131024285D01*
X113292857Y-130976666D01*
X113435714Y-130976666D01*
X113530952Y-131024285D01*
X113578571Y-131071904D01*
X113626190Y-131167142D01*
X113626190Y-131548095D01*
X113435714Y-130119523D02*
X114102380Y-130119523D01*
X113054761Y-130357619D02*
X113769047Y-130595714D01*
X113769047Y-129976666D01*
%TO.C,R5*%
X93813333Y-125532380D02*
X93480000Y-125056190D01*
X93241904Y-125532380D02*
X93241904Y-124532380D01*
X93622857Y-124532380D01*
X93718095Y-124580000D01*
X93765714Y-124627619D01*
X93813333Y-124722857D01*
X93813333Y-124865714D01*
X93765714Y-124960952D01*
X93718095Y-125008571D01*
X93622857Y-125056190D01*
X93241904Y-125056190D01*
X94718095Y-124532380D02*
X94241904Y-124532380D01*
X94194285Y-125008571D01*
X94241904Y-124960952D01*
X94337142Y-124913333D01*
X94575238Y-124913333D01*
X94670476Y-124960952D01*
X94718095Y-125008571D01*
X94765714Y-125103809D01*
X94765714Y-125341904D01*
X94718095Y-125437142D01*
X94670476Y-125484761D01*
X94575238Y-125532380D01*
X94337142Y-125532380D01*
X94241904Y-125484761D01*
X94194285Y-125437142D01*
%TO.C,R6*%
X117942380Y-119546666D02*
X117466190Y-119880000D01*
X117942380Y-120118095D02*
X116942380Y-120118095D01*
X116942380Y-119737142D01*
X116990000Y-119641904D01*
X117037619Y-119594285D01*
X117132857Y-119546666D01*
X117275714Y-119546666D01*
X117370952Y-119594285D01*
X117418571Y-119641904D01*
X117466190Y-119737142D01*
X117466190Y-120118095D01*
X116942380Y-118689523D02*
X116942380Y-118880000D01*
X116990000Y-118975238D01*
X117037619Y-119022857D01*
X117180476Y-119118095D01*
X117370952Y-119165714D01*
X117751904Y-119165714D01*
X117847142Y-119118095D01*
X117894761Y-119070476D01*
X117942380Y-118975238D01*
X117942380Y-118784761D01*
X117894761Y-118689523D01*
X117847142Y-118641904D01*
X117751904Y-118594285D01*
X117513809Y-118594285D01*
X117418571Y-118641904D01*
X117370952Y-118689523D01*
X117323333Y-118784761D01*
X117323333Y-118975238D01*
X117370952Y-119070476D01*
X117418571Y-119118095D01*
X117513809Y-119165714D01*
%TO.C,R7*%
X96353333Y-129342380D02*
X96020000Y-128866190D01*
X95781904Y-129342380D02*
X95781904Y-128342380D01*
X96162857Y-128342380D01*
X96258095Y-128390000D01*
X96305714Y-128437619D01*
X96353333Y-128532857D01*
X96353333Y-128675714D01*
X96305714Y-128770952D01*
X96258095Y-128818571D01*
X96162857Y-128866190D01*
X95781904Y-128866190D01*
X96686666Y-128342380D02*
X97353333Y-128342380D01*
X96924761Y-129342380D01*
%TO.C,JP1*%
D14*
X129032000Y-130476171D02*
X129032000Y-130911600D01*
X129002971Y-130998685D01*
X128944914Y-131056742D01*
X128857828Y-131085771D01*
X128799771Y-131085771D01*
X129322285Y-131085771D02*
X129322285Y-130476171D01*
X129554514Y-130476171D01*
X129612571Y-130505200D01*
X129641600Y-130534228D01*
X129670628Y-130592285D01*
X129670628Y-130679371D01*
X129641600Y-130737428D01*
X129612571Y-130766457D01*
X129554514Y-130795485D01*
X129322285Y-130795485D01*
X130251200Y-131085771D02*
X129902857Y-131085771D01*
X130077028Y-131085771D02*
X130077028Y-130476171D01*
X130018971Y-130563257D01*
X129960914Y-130621314D01*
X129902857Y-130650342D01*
X128480457Y-131746171D02*
X128886857Y-132355771D01*
X128886857Y-131746171D02*
X128480457Y-132355771D01*
X129322285Y-132036457D02*
X129409371Y-132065485D01*
X129438400Y-132094514D01*
X129467428Y-132152571D01*
X129467428Y-132239657D01*
X129438400Y-132297714D01*
X129409371Y-132326742D01*
X129351314Y-132355771D01*
X129119085Y-132355771D01*
X129119085Y-131746171D01*
X129322285Y-131746171D01*
X129380342Y-131775200D01*
X129409371Y-131804228D01*
X129438400Y-131862285D01*
X129438400Y-131920342D01*
X129409371Y-131978400D01*
X129380342Y-132007428D01*
X129322285Y-132036457D01*
X129119085Y-132036457D01*
X129728685Y-132036457D02*
X129931885Y-132036457D01*
X130018971Y-132355771D02*
X129728685Y-132355771D01*
X129728685Y-131746171D01*
X130018971Y-131746171D01*
X130280228Y-132036457D02*
X130483428Y-132036457D01*
X130570514Y-132355771D02*
X130280228Y-132355771D01*
X130280228Y-131746171D01*
X130570514Y-131746171D01*
D15*
X111948685Y-106951659D02*
X111368114Y-106951659D01*
X111658400Y-106951659D02*
X111658400Y-105935659D01*
X111561638Y-106080801D01*
X111464876Y-106177563D01*
X111368114Y-106225944D01*
%TO.C,U3*%
D11*
X100838095Y-105072380D02*
X100838095Y-105881904D01*
X100885714Y-105977142D01*
X100933333Y-106024761D01*
X101028571Y-106072380D01*
X101219047Y-106072380D01*
X101314285Y-106024761D01*
X101361904Y-105977142D01*
X101409523Y-105881904D01*
X101409523Y-105072380D01*
X101790476Y-105072380D02*
X102409523Y-105072380D01*
X102076190Y-105453333D01*
X102219047Y-105453333D01*
X102314285Y-105500952D01*
X102361904Y-105548571D01*
X102409523Y-105643809D01*
X102409523Y-105881904D01*
X102361904Y-105977142D01*
X102314285Y-106024761D01*
X102219047Y-106072380D01*
X101933333Y-106072380D01*
X101838095Y-106024761D01*
X101790476Y-105977142D01*
%TO.C,150ohm1*%
X115372380Y-101774285D02*
X115372380Y-102345714D01*
X115372380Y-102060000D02*
X114372380Y-102060000D01*
X114515238Y-102155238D01*
X114610476Y-102250476D01*
X114658095Y-102345714D01*
X114372380Y-100869523D02*
X114372380Y-101345714D01*
X114848571Y-101393333D01*
X114800952Y-101345714D01*
X114753333Y-101250476D01*
X114753333Y-101012380D01*
X114800952Y-100917142D01*
X114848571Y-100869523D01*
X114943809Y-100821904D01*
X115181904Y-100821904D01*
X115277142Y-100869523D01*
X115324761Y-100917142D01*
X115372380Y-101012380D01*
X115372380Y-101250476D01*
X115324761Y-101345714D01*
X115277142Y-101393333D01*
X114372380Y-100202857D02*
X114372380Y-100107619D01*
X114420000Y-100012380D01*
X114467619Y-99964761D01*
X114562857Y-99917142D01*
X114753333Y-99869523D01*
X114991428Y-99869523D01*
X115181904Y-99917142D01*
X115277142Y-99964761D01*
X115324761Y-100012380D01*
X115372380Y-100107619D01*
X115372380Y-100202857D01*
X115324761Y-100298095D01*
X115277142Y-100345714D01*
X115181904Y-100393333D01*
X114991428Y-100440952D01*
X114753333Y-100440952D01*
X114562857Y-100393333D01*
X114467619Y-100345714D01*
X114420000Y-100298095D01*
X114372380Y-100202857D01*
X115372380Y-99298095D02*
X115324761Y-99393333D01*
X115277142Y-99440952D01*
X115181904Y-99488571D01*
X114896190Y-99488571D01*
X114800952Y-99440952D01*
X114753333Y-99393333D01*
X114705714Y-99298095D01*
X114705714Y-99155238D01*
X114753333Y-99060000D01*
X114800952Y-99012380D01*
X114896190Y-98964761D01*
X115181904Y-98964761D01*
X115277142Y-99012380D01*
X115324761Y-99060000D01*
X115372380Y-99155238D01*
X115372380Y-99298095D01*
X115372380Y-98536190D02*
X114372380Y-98536190D01*
X115372380Y-98107619D02*
X114848571Y-98107619D01*
X114753333Y-98155238D01*
X114705714Y-98250476D01*
X114705714Y-98393333D01*
X114753333Y-98488571D01*
X114800952Y-98536190D01*
X115372380Y-97631428D02*
X114705714Y-97631428D01*
X114800952Y-97631428D02*
X114753333Y-97583809D01*
X114705714Y-97488571D01*
X114705714Y-97345714D01*
X114753333Y-97250476D01*
X114848571Y-97202857D01*
X115372380Y-97202857D01*
X114848571Y-97202857D02*
X114753333Y-97155238D01*
X114705714Y-97060000D01*
X114705714Y-96917142D01*
X114753333Y-96821904D01*
X114848571Y-96774285D01*
X115372380Y-96774285D01*
X115372380Y-95774285D02*
X115372380Y-96345714D01*
X115372380Y-96060000D02*
X114372380Y-96060000D01*
X114515238Y-96155238D01*
X114610476Y-96250476D01*
X114658095Y-96345714D01*
%TD*%
M02*
