%TF.GenerationSoftware,KiCad,Pcbnew,(5.1.12)-1*%
%TF.CreationDate,2021-12-04T12:05:45+01:00*%
%TF.ProjectId,touch-zigbee,746f7563-682d-47a6-9967-6265652e6b69,rev?*%
%TF.SameCoordinates,Original*%
%TF.FileFunction,Soldermask,Bot*%
%TF.FilePolarity,Negative*%
%FSLAX46Y46*%
G04 Gerber Fmt 4.6, Leading zero omitted, Abs format (unit mm)*
G04 Created by KiCad (PCBNEW (5.1.12)-1) date 2021-12-04 12:05:45*
%MOMM*%
%LPD*%
G01*
G04 APERTURE LIST*
%ADD10O,1.050000X1.500000*%
%ADD11R,1.050000X1.500000*%
%ADD12C,1.200000*%
%ADD13R,1.200000X1.200000*%
%ADD14O,1.950000X1.700000*%
%ADD15R,1.800000X1.800000*%
%ADD16C,1.800000*%
%ADD17O,1.700000X2.000000*%
%ADD18C,1.400000*%
%ADD19O,1.400000X1.400000*%
%ADD20C,1.727200*%
%ADD21R,1.600000X1.600000*%
%ADD22O,1.600000X1.600000*%
G04 APERTURE END LIST*
D10*
%TO.C,Q1*%
X107950000Y-132080000D03*
X106680000Y-132080000D03*
D11*
X109220000Y-132080000D03*
%TD*%
%TO.C,U1*%
X102870000Y-102870000D03*
D10*
X100330000Y-102870000D03*
X101600000Y-102870000D03*
%TD*%
%TO.C,Q2*%
X92710000Y-121920000D03*
X93980000Y-121920000D03*
D11*
X91440000Y-121920000D03*
%TD*%
D12*
%TO.C,C1*%
X101600000Y-96290000D03*
D13*
X101600000Y-97790000D03*
%TD*%
%TO.C,C2*%
X95250000Y-102870000D03*
D12*
X95250000Y-101370000D03*
%TD*%
%TO.C,Capacitive_Sensor_CJMCU-1010*%
G36*
G01*
X93435000Y-115150000D02*
X91985000Y-115150000D01*
G75*
G02*
X91735000Y-114900000I0J250000D01*
G01*
X91735000Y-113700000D01*
G75*
G02*
X91985000Y-113450000I250000J0D01*
G01*
X93435000Y-113450000D01*
G75*
G02*
X93685000Y-113700000I0J-250000D01*
G01*
X93685000Y-114900000D01*
G75*
G02*
X93435000Y-115150000I-250000J0D01*
G01*
G37*
D14*
X92710000Y-111800000D03*
X92710000Y-109300000D03*
%TD*%
D15*
%TO.C,D1*%
X109220000Y-101600000D03*
D16*
X106680000Y-101600000D03*
%TD*%
%TO.C,Power1*%
G36*
G01*
X112610000Y-94500000D02*
X112610000Y-96000000D01*
G75*
G02*
X112360000Y-96250000I-250000J0D01*
G01*
X111160000Y-96250000D01*
G75*
G02*
X110910000Y-96000000I0J250000D01*
G01*
X110910000Y-94500000D01*
G75*
G02*
X111160000Y-94250000I250000J0D01*
G01*
X112360000Y-94250000D01*
G75*
G02*
X112610000Y-94500000I0J-250000D01*
G01*
G37*
D17*
X109260000Y-95250000D03*
%TD*%
D10*
%TO.C,Q3*%
X121920000Y-97790000D03*
X120650000Y-97790000D03*
D11*
X123190000Y-97790000D03*
%TD*%
D18*
%TO.C,R1*%
X127000000Y-119380000D03*
D19*
X127000000Y-111760000D03*
%TD*%
%TO.C,R2*%
X120650000Y-111760000D03*
D18*
X120650000Y-119380000D03*
%TD*%
%TO.C,R3*%
X116840000Y-106680000D03*
D19*
X124460000Y-106680000D03*
%TD*%
D18*
%TO.C,R4*%
X115570000Y-134620000D03*
D19*
X115570000Y-127000000D03*
%TD*%
D18*
%TO.C,R5*%
X90170000Y-127000000D03*
D19*
X97790000Y-127000000D03*
%TD*%
%TO.C,R6*%
X115570000Y-123190000D03*
D18*
X115570000Y-115570000D03*
%TD*%
D19*
%TO.C,R7*%
X100330000Y-130810000D03*
D18*
X92710000Y-130810000D03*
%TD*%
D20*
%TO.C,JP1*%
X109651800Y-107000040D03*
X109651800Y-109001560D03*
X109651800Y-111000540D03*
X109651800Y-113002060D03*
X109651800Y-115001040D03*
X109651800Y-117000020D03*
X109651800Y-119001540D03*
X109651800Y-121000520D03*
X109651800Y-123002040D03*
X109651800Y-125001020D03*
X131648200Y-125001020D03*
X131648200Y-123002040D03*
X131648200Y-121000520D03*
X131648200Y-119001540D03*
X131648200Y-117000020D03*
X131648200Y-115001040D03*
X131648200Y-113002060D03*
X131648200Y-111000540D03*
X131648200Y-109001560D03*
X131648200Y-107000040D03*
%TD*%
D21*
%TO.C,U3*%
X97790000Y-107950000D03*
D22*
X105410000Y-123190000D03*
X97790000Y-110490000D03*
X105410000Y-120650000D03*
X97790000Y-113030000D03*
X105410000Y-118110000D03*
X97790000Y-115570000D03*
X105410000Y-115570000D03*
X97790000Y-118110000D03*
X105410000Y-113030000D03*
X97790000Y-120650000D03*
X105410000Y-110490000D03*
X97790000Y-123190000D03*
X105410000Y-107950000D03*
%TD*%
D18*
%TO.C,150ohm1*%
X116840000Y-102870000D03*
D19*
X116840000Y-95250000D03*
%TD*%
M02*
