M48
; DRILL file {KiCad (5.1.12)-1} date 12/04/21 12:05:35
; FORMAT={-:-/ absolute / inch / decimal}
; #@! TF.CreationDate,2021-12-04T12:05:35+01:00
; #@! TF.GenerationSoftware,Kicad,Pcbnew,(5.1.12)-1
; #@! TF.FileFunction,Plated,1,2,PTH
FMAT,2
INCH
T1C0.0236
T2C0.0276
T3C0.0295
T4C0.0314
T5C0.0315
T6C0.0354
T7C0.0374
T8C0.0394
%
G90
G05
T1
X3.75Y-3.9909
X3.75Y-4.05
X4.0Y-3.7909
X4.0Y-3.85
T2
X3.55Y-5.0
X3.65Y-5.15
X3.85Y-5.0
X3.95Y-5.15
X4.55Y-4.55
X4.55Y-4.85
X4.55Y-5.0
X4.55Y-5.3
X4.6Y-3.75
X4.6Y-4.05
X4.6Y-4.2
X4.75Y-4.4
X4.75Y-4.7
X4.9Y-4.2
X5.0Y-4.4
X5.0Y-4.7
T3
X3.6Y-4.8
X3.65Y-4.8
X3.7Y-4.8
X3.95Y-4.05
X4.0Y-4.05
X4.05Y-4.05
X4.2Y-5.2
X4.25Y-5.2
X4.3Y-5.2
X4.75Y-3.85
X4.8Y-3.85
X4.85Y-3.85
T4
X4.317Y-4.2126
X4.317Y-4.2914
X4.317Y-4.3701
X4.317Y-4.4489
X4.317Y-4.5276
X4.317Y-4.6063
X4.317Y-4.6851
X4.317Y-4.7638
X4.317Y-4.8426
X4.317Y-4.9213
X5.183Y-4.2126
X5.183Y-4.2914
X5.183Y-4.3701
X5.183Y-4.4489
X5.183Y-4.5276
X5.183Y-4.6063
X5.183Y-4.6851
X5.183Y-4.7638
X5.183Y-4.8426
X5.183Y-4.9213
T5
X3.85Y-4.25
X3.85Y-4.35
X3.85Y-4.45
X3.85Y-4.55
X3.85Y-4.65
X3.85Y-4.75
X3.85Y-4.85
X4.15Y-4.25
X4.15Y-4.35
X4.15Y-4.45
X4.15Y-4.55
X4.15Y-4.65
X4.15Y-4.75
X4.15Y-4.85
T6
X4.2Y-4.0
X4.3Y-4.0
T7
X3.65Y-4.3031
X3.65Y-4.4016
X3.65Y-4.5
T8
X4.3016Y-3.75
X4.4Y-3.75
T0
M30
